<svg xmlns="http://www.w3.org/2000/svg" x="0px" y="0px" width="20px" height="20px" viewBox="0 0 20 20" xml:space="preserve">
<path fill="#2F6D9A" d="M17.922,8.929c0.551,3.983-1.963,7.772-5.848,8.814c-0.688,0.184-1.381,0.272-2.065,0.272
	c-2.731,0-5.304-1.416-6.769-3.754l-0.751,2.8l-0.966-0.26l1.229-4.58l4.581,1.227l-0.259,0.967l-3.075-0.824
	c1.574,2.652,4.762,4.012,7.815,3.186c3.399-0.911,5.599-4.226,5.117-7.711L17.922,8.929z M3.073,10.966
	C2.591,7.48,4.792,4.165,8.191,3.254c3.02-0.809,6.165,0.5,7.758,3.086l-2.86-0.767l-0.26,0.966l4.581,1.228l1.229-4.581
	l-0.967-0.259l-0.805,3.004c-1.8-3.032-5.44-4.582-8.935-3.644c-3.886,1.041-6.4,4.831-5.849,8.814L3.073,10.966z"/>
</svg>
